<svg width="128" height="62" viewBox="0 0 128 62" fill="none" xmlns="http://www.w3.org/2000/svg">
<path d="M46.072 18.872L39.052 44H33.112L28.396 26.108L23.464 44L17.56 44.036L10.792 18.872H16.192L20.62 38.384L25.732 18.872H31.348L36.172 38.276L40.636 18.872H46.072ZM67.9029 33.596C67.9029 34.316 67.8549 34.964 67.7589 35.54H53.1789C53.2989 36.98 53.8029 38.108 54.6909 38.924C55.5789 39.74 56.6709 40.148 57.9669 40.148C59.8389 40.148 61.1709 39.344 61.9629 37.736H67.3989C66.8229 39.656 65.7189 41.24 64.0869 42.488C62.4549 43.712 60.4509 44.324 58.0749 44.324C56.1549 44.324 54.4269 43.904 52.8909 43.064C51.3789 42.2 50.1909 40.988 49.3269 39.428C48.4869 37.868 48.0669 36.068 48.0669 34.028C48.0669 31.964 48.4869 30.152 49.3269 28.592C50.1669 27.032 51.3429 25.832 52.8549 24.992C54.3669 24.152 56.1069 23.732 58.0749 23.732C59.9709 23.732 61.6629 24.14 63.1509 24.956C64.6629 25.772 65.8269 26.936 66.6429 28.448C67.4829 29.936 67.9029 31.652 67.9029 33.596ZM62.6829 32.156C62.6589 30.86 62.1909 29.828 61.2789 29.06C60.3669 28.268 59.2509 27.872 57.9309 27.872C56.6829 27.872 55.6269 28.256 54.7629 29.024C53.9229 29.768 53.4069 30.812 53.2149 32.156H62.6829ZM92.4257 18.872V44H87.3857V33.308H76.6217V44H71.5817V18.872H76.6217V29.204H87.3857V18.872H92.4257ZM110.346 44L104.802 34.208H102.426V44H97.3863V18.872H106.818C108.762 18.872 110.418 19.22 111.786 19.916C113.154 20.588 114.174 21.512 114.846 22.688C115.542 23.84 115.89 25.136 115.89 26.576C115.89 28.232 115.41 29.732 114.45 31.076C113.49 32.396 112.062 33.308 110.166 33.812L116.178 44H110.346ZM102.426 30.428H106.638C108.006 30.428 109.026 30.104 109.698 29.456C110.37 28.784 110.706 27.86 110.706 26.684C110.706 25.532 110.37 24.644 109.698 24.02C109.026 23.372 108.006 23.048 106.638 23.048H102.426V30.428Z" fill="black"/>
</svg>
